<?xml version="1.0" encoding="UTF-8" standalone="no"?>
<!DOCTYPE svg PUBLIC "-//W3C//DTD SVG 1.1//EN"
 "http://www.w3.org/Graphics/SVG/1.1/DTD/svg11.dtd">
<!-- Generated by graphviz version 2.43.0 (0)
 -->
<!-- Title: %3 Pages: 1 -->
<svg width="682pt" height="404pt"
 viewBox="0.00 0.00 681.63 404.00" xmlns="http://www.w3.org/2000/svg" xmlns:xlink="http://www.w3.org/1999/xlink">
<g id="graph0" class="graph" transform="scale(1 1) rotate(0) translate(4 400)">
<title>%3</title>
<polygon fill="white" stroke="transparent" points="-4,4 -4,-400 677.63,-400 677.63,4 -4,4"/>
<!-- CP -->
<g id="node1" class="node">
<title>CP</title>
<ellipse fill="none" stroke="black" cx="69.3" cy="-153" rx="69.09" ry="26.74"/>
<text text-anchor="middle" x="69.3" y="-156.8" font-family="Times,serif" font-size="14.00">ChessPiece</text>
<text text-anchor="middle" x="69.3" y="-141.8" font-family="Times,serif" font-size="14.00">(Abstract)</text>
</g>
<!-- Q -->
<g id="node2" class="node">
<title>Q</title>
<ellipse fill="none" stroke="black" cx="317.32" cy="-288" rx="40.09" ry="18"/>
<text text-anchor="middle" x="317.32" y="-284.3" font-family="Times,serif" font-size="14.00">Queen</text>
</g>
<!-- CP&#45;&gt;Q -->
<g id="edge1" class="edge">
<title>CP&#45;&gt;Q</title>
<path fill="none" stroke="black" d="M101.24,-176.92C133.21,-200.76 185.27,-237.16 234.59,-261 246.48,-266.75 259.9,-271.74 272.38,-275.82"/>
<polygon fill="black" stroke="black" points="271.55,-279.23 282.14,-278.9 273.65,-272.55 271.55,-279.23"/>
</g>
<!-- K -->
<g id="node3" class="node">
<title>K</title>
<ellipse fill="none" stroke="black" cx="317.32" cy="-234" rx="32.49" ry="18"/>
<text text-anchor="middle" x="317.32" y="-230.3" font-family="Times,serif" font-size="14.00">King</text>
</g>
<!-- CP&#45;&gt;K -->
<g id="edge2" class="edge">
<title>CP&#45;&gt;K</title>
<path fill="none" stroke="black" d="M122.77,-170.28C169.84,-185.77 237.71,-208.12 279.31,-221.82"/>
<polygon fill="black" stroke="black" points="278.45,-225.22 289.04,-225.02 280.64,-218.57 278.45,-225.22"/>
</g>
<!-- B -->
<g id="node4" class="node">
<title>B</title>
<ellipse fill="none" stroke="black" cx="317.32" cy="-180" rx="42.49" ry="18"/>
<text text-anchor="middle" x="317.32" y="-176.3" font-family="Times,serif" font-size="14.00">Bishop</text>
</g>
<!-- CP&#45;&gt;B -->
<g id="edge3" class="edge">
<title>CP&#45;&gt;B</title>
<path fill="none" stroke="black" d="M136.23,-160.24C176.95,-164.7 228.4,-170.35 265.87,-174.46"/>
<polygon fill="black" stroke="black" points="265.72,-177.97 276.04,-175.58 266.49,-171.01 265.72,-177.97"/>
</g>
<!-- N -->
<g id="node5" class="node">
<title>N</title>
<ellipse fill="none" stroke="black" cx="317.32" cy="-126" rx="42.49" ry="18"/>
<text text-anchor="middle" x="317.32" y="-122.3" font-family="Times,serif" font-size="14.00">Knight</text>
</g>
<!-- CP&#45;&gt;N -->
<g id="edge4" class="edge">
<title>CP&#45;&gt;N</title>
<path fill="none" stroke="black" d="M136.23,-145.76C176.95,-141.3 228.4,-135.65 265.87,-131.54"/>
<polygon fill="black" stroke="black" points="266.49,-134.99 276.04,-130.42 265.72,-128.03 266.49,-134.99"/>
</g>
<!-- P -->
<g id="node6" class="node">
<title>P</title>
<ellipse fill="none" stroke="black" cx="317.32" cy="-72" rx="36" ry="18"/>
<text text-anchor="middle" x="317.32" y="-68.3" font-family="Times,serif" font-size="14.00">Pawn</text>
</g>
<!-- CP&#45;&gt;P -->
<g id="edge5" class="edge">
<title>CP&#45;&gt;P</title>
<path fill="none" stroke="black" d="M122.77,-135.72C169.15,-120.45 235.74,-98.53 277.48,-84.79"/>
<polygon fill="black" stroke="black" points="278.62,-88.1 287.02,-81.65 276.43,-81.45 278.62,-88.1"/>
</g>
<!-- R -->
<g id="node7" class="node">
<title>R</title>
<ellipse fill="none" stroke="black" cx="317.32" cy="-18" rx="33.6" ry="18"/>
<text text-anchor="middle" x="317.32" y="-14.3" font-family="Times,serif" font-size="14.00">Rook</text>
</g>
<!-- CP&#45;&gt;R -->
<g id="edge6" class="edge">
<title>CP&#45;&gt;R</title>
<path fill="none" stroke="black" d="M101.24,-129.08C133.21,-105.24 185.27,-68.84 234.59,-45 247.91,-38.56 263.15,-33.07 276.83,-28.75"/>
<polygon fill="black" stroke="black" points="277.92,-32.07 286.47,-25.81 275.88,-25.38 277.92,-32.07"/>
</g>
<!-- BP -->
<g id="node8" class="node">
<title>BP</title>
<ellipse fill="none" stroke="black" cx="69.3" cy="-351" rx="63.89" ry="18"/>
<text text-anchor="middle" x="69.3" y="-347.3" font-family="Times,serif" font-size="14.00">BoardPiece</text>
</g>
<!-- RE -->
<g id="node9" class="node">
<title>RE</title>
<ellipse fill="none" stroke="black" cx="317.32" cy="-351" rx="82.96" ry="26.74"/>
<text text-anchor="middle" x="317.32" y="-354.8" font-family="Times,serif" font-size="14.00">RandomEvent</text>
<text text-anchor="middle" x="317.32" y="-339.8" font-family="Times,serif" font-size="14.00">(Abstract)</text>
</g>
<!-- BP&#45;&gt;RE -->
<g id="edge9" class="edge">
<title>BP&#45;&gt;RE</title>
<path fill="none" stroke="black" d="M133.02,-351C160.64,-351 193.66,-351 224.02,-351"/>
<polygon fill="black" stroke="black" points="224.2,-354.5 234.2,-351 224.2,-347.5 224.2,-354.5"/>
<text text-anchor="middle" x="186.59" y="-354.8" font-family="Times,serif" font-size="14.00">surprise</text>
</g>
<!-- FP -->
<g id="node10" class="node">
<title>FP</title>
<ellipse fill="none" stroke="black" cx="555.35" cy="-378" rx="94.78" ry="18"/>
<text text-anchor="middle" x="555.35" y="-374.3" font-family="Times,serif" font-size="14.00">FreezePieceEvent</text>
</g>
<!-- RE&#45;&gt;FP -->
<g id="edge7" class="edge">
<title>RE&#45;&gt;FP</title>
<path fill="none" stroke="black" d="M395.61,-359.84C417.29,-362.32 441.07,-365.04 463.47,-367.6"/>
<polygon fill="black" stroke="black" points="463.31,-371.11 473.65,-368.77 464.11,-364.15 463.31,-371.11"/>
</g>
<!-- PQ -->
<g id="node11" class="node">
<title>PQ</title>
<ellipse fill="none" stroke="black" cx="555.35" cy="-324" rx="118.08" ry="18"/>
<text text-anchor="middle" x="555.35" y="-320.3" font-family="Times,serif" font-size="14.00">PromoteToQueenEvent</text>
</g>
<!-- RE&#45;&gt;PQ -->
<g id="edge8" class="edge">
<title>RE&#45;&gt;PQ</title>
<path fill="none" stroke="black" d="M395.61,-342.16C413.08,-340.16 431.9,-338.01 450.27,-335.91"/>
<polygon fill="black" stroke="black" points="450.88,-339.36 460.42,-334.75 450.08,-332.4 450.88,-339.36"/>
</g>
</g>
</svg>
